# xmcd
#
# Track frame offsets:
#	150
#	13053
#	26592
#	35829
#	47234
#	57837
#	70725
#	84231
#	95700
#	107669
#
# Disc length: 1610 seconds
#
# Revision: 1
# Processed by: cddbd v1.4PL0 Copyright (c) Steve Scherf et al.
# Submitted via: EasyCDDAExtractor 5.0.6
#
DISCID=8006480a
DTITLE=Carl and Pearl Butler - Don't Let Me Cross Over
DYEAR=1900
DGENRE=Country
TTITLE0=Don't Let Me Cross Over
TTITLE1=Fifteen Years Ago
TTITLE2=Two Of A Kind
TTITLE3=Let's Watch The Blue Birds
TTITLE4=Easy Loving
TTITLE5=Hearts For Lunch
TTITLE6=She Didn't Come Home
TTITLE7=I'm So Close To Loving You
TTITLE8=Temptation Keeps Twisting Her Arm
TTITLE9=Watch That First Step
EXTD=
EXTT0=
EXTT1=
EXTT2=
EXTT3=
EXTT4=
EXTT5=
EXTT6=
EXTT7=
EXTT8=
EXTT9=
PLAYORDER=
